<svg xmlns="http://www.w3.org/2000/svg" width="369.437" height="153" viewBox="0 0 369.437 153">
  <g id="index-logo" transform="translate(-0.996)">
    <path id="Shape" d="M4.29,10.27l1.34,1.79c-3.45,2.22-4.17,7.28-1.71,10.67a13.853,13.853,0,0,0,1.371-2l9.63-16.56C16.52,1.37,18.851,0,20.8,0c7.08,0,6.49,9-.65,11.43,6.84,4.57,1.92,17.31-8.681,17.32C-.979,28.75-3.169,15.02,4.29,10.27Z" transform="translate(100.709)" fill="#fff"/>
    <path id="Shape-2" data-name="Shape" d="M352.023,71.563l5.714-5.712,5.712,5.715-5.715,5.711ZM0,71.537l5.714-5.713,5.712,5.715L5.712,77.251Zm235.234-39.4,6.48-11.24a9.812,9.812,0,0,1-3.81.94h-.79c-3.86,4.87-10.15,3.99-10.15-.55-2.2,2.11-4.48,3.669-6.55,3.669-2.869,0-3.939-2.43-2.43-5.06l4.621-8c1.54-2.65-.88-3.53-6.36,3.35l-5.4,9.41h-3.59l1.22-2.12A12.548,12.548,0,0,1,203,24.9h-.1a9.536,9.536,0,0,1-1,.069A3.88,3.88,0,0,1,198,22.1l2.171-1.16a2,2,0,0,0,1.679,1.3c3.35,0,2.6-6.63,4-10.33-1.26,1.68-3.06,4.171-5.061,6.5-2.939,3.42-6.4,6.57-9.27,6.57s-3.939-2.42-2.43-5.061l3.76-6.53a1.75,1.75,0,0,0-.21-2l-.48-.58c-2.88,3.87-4.171,5.63-5.881,7.63-3,3.42-7,6.57-11,6.57-3.14,0-5.01-1.95-4.82-4.52a10.44,10.44,0,0,1-4.72,1.4,5.788,5.788,0,0,1-.79,0,7.869,7.869,0,0,1-6,3.3c-2.3,0-4.11-1.37-4.11-3.8-2.2,2.1-4.48,3.649-6.54,3.649-2.87,0-3.929-2.42-2.43-5.06l3.76-6.53a1.75,1.75,0,0,0-.21-2l-.481-.58c-2.88,3.87-4.17,5.63-5.88,7.63-2.94,3.42-6.33,6.57-9.27,6.57-1.81,0-2.91-.96-3.08-2.33-1.71,1.409-3.49,2.33-4.93,2.33-2.87,0-3.94-2.42-2.43-5.061l5-8.619c1.509-2.6,4.17-4.11,6.089-4.11a3.7,3.7,0,0,1,3.76,3.45h2l-5.75,10.06c-.82,1.45-.38,2,.41,2,1.579,0,4.07-2.34,6.64-5.34l.239-.27c2.3-2.77,4.431-5.78,6-8l-.31-.41c-1.271-1.64-1.08-3.659.92-5.469l1.85,2-.11.09a1.39,1.39,0,0,0-.1,2l2,2.39c1.16,1.4,1.741,2.66.51,4.819l-3.56,6.23c-.82,1.451-.38,2,.41,2,1.579,0,4.07-2.34,6.64-5.341l.19-.21L166.154.06h3.63l-4.52,7.83a4.131,4.131,0,0,1,2.33-.79H168a3,3,0,0,1,2.81,3.18,8.662,8.662,0,0,1-1.34,4.09l-3.35,5.78a7.593,7.593,0,0,0,5.37-2.63l.21-.24,3.47-5.97a7.529,7.529,0,0,1,6.67-4.11c2.91,0,4.76,2.47,2.84,5.75l-.509.89c-2.67,4.61-6.98,5.1-9.27,4.1l-.34.62c-1.64,2.87-.34,4.24,1.85,4.24,2.5,0,5.78-2.34,8.349-5.34l.24-.27c2.31-2.77,4.43-5.78,6-8l-.3-.41c-1.27-1.641-1.08-3.66.921-5.47l1.85,2-.11.09a1.389,1.389,0,0,0-.09,2l2,2.39c1.16,1.4,1.74,2.66.51,4.819l-3.56,6.231c-.82,1.45-.38,2,.41,2,1.579,0,4.07-2.34,6.64-5.341l.239-.27c3.21-3.759,6.43-8.429,7.9-10.429l2.67,1.44c-2.191,4.55-1.95,9.75-3.081,13.14a22.148,22.148,0,0,0,4.251-3.87l.2-.23L221.324,0h3.56L219.2,9.89c1.82-1.85,3.46-2.7,5-2.7,1.99,0,3.46,1.95,1.92,4.65l-5.13,9c-.82,1.45-.38,2,.41,2,1.58,0,4.071-2.34,6.64-5.341l.19-.22,1.461-2.48,1.75-3c2.05-3.559,4.17-4.65,6.91-4.65,3.35,0,5.34,3.521,3.18,7.25l-3.35,5.78a7.659,7.659,0,0,0,5.37-2.63l.239-.27,5.56-9.65h3.56l-.72,1.229c3.63-3.25,9-1.36,5.68,4.28l-3.93,6.74c-.47.75-.89,1.75-1.47,2.67a16.754,16.754,0,0,0,6.5-5l.24-.27a2.249,2.249,0,0,1,1.419,1.15c-2.91,3.389-6.29,6.47-11.46,6.57h-.21a3.882,3.882,0,0,1-3.9-2.87l2-1a1.37,1.37,0,0,0,2.57,0L255,11.82c.93-1.61-1.54-3.6-5.54,1.81l-10.64,18.51Z" transform="translate(0.996 1.72)" fill="#fff"/>
    <path id="Shape-3" data-name="Shape" d="M0,42.62V40.54H13.51a4.628,4.628,0,0,0,4.61-4.559V21.88a5.2,5.2,0,0,0-1.66-3.69,4.467,4.467,0,0,0,1.66-3.51V2a4.462,4.462,0,0,0-.48-2A4.559,4.559,0,0,1,20.2,4.07V16.75a4.469,4.469,0,0,1-1.689,3.52A5.189,5.189,0,0,1,20.2,23.96v14.1a4.629,4.629,0,0,1-4.559,4.56ZM5.31,15.23V4.82h5.35V6.91H7.39v8.32Z" transform="translate(42.49 58.25)" fill="#636466"/>
    <path id="Shape-4" data-name="Shape" d="M33.01,28.27V0h5.35V2.09H35.09V28.27ZM0,28.27V17.8H5.35v2.08H2.08v8.39Z" transform="translate(47.8 63.07)" fill="#636466"/>
    <path id="Shape-5" data-name="Shape" d="M4.07,42.67A4.56,4.56,0,0,1,0,40.11a4.5,4.5,0,0,0,2,.48H13.06a4.631,4.631,0,0,0,4.56-4.56v-34a4.452,4.452,0,0,0-.481-2A4.569,4.569,0,0,1,19.71,4.11v34a4.631,4.631,0,0,1-4.56,4.56Zm28.44-.01V40.57h5.31V22.65H40.65L41,24.73H39.9V42.66Zm13.24-.01-.35-2.08H51.08L48,22.22a4.46,4.46,0,0,0,2.57-4.07V2a4.55,4.55,0,0,0-.48-2A4.561,4.561,0,0,1,52.66,4.1V20.24a4.469,4.469,0,0,1-2.59,4.06l3.07,18.35Zm24.09-9.53V4.85H75.2V6.94H71.93V33.12ZM37.82,15.26V4.85h5.36V6.94H39.9V15.26Z" transform="translate(76 58.22)" fill="#636466"/>
    <path id="Shape-6" data-name="Shape" d="M4.07,42.64A4.559,4.559,0,0,1,0,40.08a4.487,4.487,0,0,0,2,.481H13.1A4.63,4.63,0,0,0,17.66,36V2a4.45,4.45,0,0,0-.48-2,4.571,4.571,0,0,1,2.54,4.08v34a4.631,4.631,0,0,1-4.56,4.56ZM37.85,33.09V4.82h5.36V6.91H39.94V33.09Z" transform="translate(141 58.25)" fill="#636466"/>
    <path id="Shape-7" data-name="Shape" d="M0,43.12V41.04H13.56a4.63,4.63,0,0,0,4.559-4.56v-34a4.463,4.463,0,0,0-.48-2A4.571,4.571,0,0,1,20.2,4.56v34a4.629,4.629,0,0,1-4.559,4.56Zm66.26-.01-.59-2.09h5.9V0h2.09V43.11Zm-12.8,0V41.02h5.3V22.18l2.09,7.241V43.11Zm-20.08,0V41.02h5.31V0h2.08V43.11Zm58.39-9.54V28.44l2.09-.48v5.61Zm-.741-8.34a4.53,4.53,0,0,1-4.08-2.61,4.514,4.514,0,0,0,2,.481h8.19V25.23ZM99.22,12.47l5.37-1.24V2.48a4.463,4.463,0,0,0-.48-2,4.562,4.562,0,0,1,2.56,4.071V13.3l-7.45,1.73Z" transform="translate(173.55 57.77)" fill="#636466"/>
    <path id="Shape-8" data-name="Shape" d="M4.07,43.12A4.56,4.56,0,0,1,0,40.56a4.5,4.5,0,0,0,2,.48H13.09a4.631,4.631,0,0,0,4.56-4.56V20.28a4.462,4.462,0,0,0-.48-2,4.56,4.56,0,0,1,2.54,4.07V38.56a4.631,4.631,0,0,1-4.56,4.56Zm61.67-.01V41.02h5.3V0h2.08V43.11Zm-19.53,0-.059-.25-.58-1.84h6.01l-6.9-21.61L50.91,0h2.75l-6.9,21.49,6.9,21.62Zm-13.669,0V41.02h5.3V23.1h.68l1.41,4.479V43.11ZM4.83,15.71V5.3H10.19V7.39H6.92V15.71Z" transform="translate(260.49 57.77)" fill="#636466"/>
    <path id="Shape-9" data-name="Shape" d="M43.194,0H44.6c5.43.28,9.69,1.73,12.39,4.72,2.74-3,7-4.46,12.46-4.72H70.8c12.11.82,17.63,9.5,27.3,13.19a11.12,11.12,0,0,0,4.79,1c2.48-.27,4.06-2.78,3.74-5.58-.34-3-3.28-5.61-6.56-4.17a4.32,4.32,0,0,0-1.17.8c-.25.23-.53.83-1.17.61-.6-.5,0-1.23.31-1.65a6,6,0,0,1,6.07-3c5.63.4,10.67,5.34,9.81,12.82-1.92,11.13-12.1,14.13-24.17,15.13h-3.93a48.28,48.28,0,0,1-28.77-11,49.07,49.07,0,0,1-28.9,11h-3.86c-12.16-1.07-22.44-4-24.23-15.46-.68-8.16,4.18-12.17,9.82-12.58a6.11,6.11,0,0,1,6.14,3c.28.46.8,1.17.31,1.72-.61.11-.91-.37-1.17-.61a4,4,0,0,0-2.82-1.23c-3.86-.14-6.08,4.15-4.54,7.61a4.33,4.33,0,0,0,3.37,2.52,11.69,11.69,0,0,0,4.79-1,23.84,23.84,0,0,0,3.87-1.9C27.184,6.96,32.934.91,43.194,0Z" transform="translate(125.706 123.85)" fill="#fff"/>
    <path id="Shape-10" data-name="Shape" d="M0,5.758,5.713.044,7.8,2.13,2.086,7.843Zm351.967-.044L357.68,0l2.086,2.085L354.053,7.8Z" transform="translate(10.667 77.192)" fill="#636466"/>
    <path id="Shape-11" data-name="Shape" d="M264.22,43.12l-.06-.25L258.62,25.2h-.68V43.11h-7.39V0h7.39V17.8h.61L264.22,0h7.51l-6.96,21.5,6.9,21.62Zm-42.13,0a4.59,4.59,0,0,1-4.54-4.56V29.69l7.39-1.72v7.7h5.36V25.19h-8.19a4.551,4.551,0,0,1-4.56-4.54V4.56A4.551,4.551,0,0,1,222.09,0h11.1a4.591,4.591,0,0,1,4.56,4.56v8.72l-7.45,1.73V7.39h-5.36V17.8h8.23a4.59,4.59,0,0,1,4.559,4.559v16.2a4.629,4.629,0,0,1-4.559,4.56Zm-91.031,0V0H146.7a4.591,4.591,0,0,1,4.56,4.56v34a4.631,4.631,0,0,1-4.56,4.56Zm-28.45,0a4.591,4.591,0,0,1-4.56-4.56v-34A4.55,4.55,0,0,1,102.55,0h11.14a4.59,4.59,0,0,1,4.56,4.56v34a4.631,4.631,0,0,1-4.56,4.56Zm-65.06,0a4.59,4.59,0,0,1-4.559-4.56v-34A4.549,4.549,0,0,1,37.55,0h11.1A4.59,4.59,0,0,1,53.21,4.56v34a4.63,4.63,0,0,1-4.559,4.56Zm246.19-.01V0h7.39V43.11Zm-86.41,0L191.91,24.28V43.11H184.55V0h7.33l5.42,17.67V0h7.421V43.11Zm-32.89,0V0h7.39V43.11Zm-85.18,0-3-17.92H73.43V43.11H66.04V0H81.68a4.531,4.531,0,0,1,4.5,4.56V20.7a4.471,4.471,0,0,1-2.631,4.06L86.63,43.11ZM0,43.11V0H15.64A4.59,4.59,0,0,1,20.2,4.56V17.28a4.468,4.468,0,0,1-1.65,3.48,5.2,5.2,0,0,1,1.66,3.69v14.1a4.631,4.631,0,0,1-4.56,4.56Z" transform="translate(36.45 51.72)" fill="#fff"/>
  </g>
</svg>
