<svg id="logo-small" xmlns="http://www.w3.org/2000/svg" width="112" height="24" viewBox="0 0 112 24">
  <g id="logo-small-2" data-name="logo-small">
    <path id="Shape" d="M2.953,7.08l1,1.25a5.239,5.239,0,0,0-1.229,7.38,9.6,9.6,0,0,0,.95-1.41l6.6-11.42A5.058,5.058,0,0,1,14.333,0c4.89,0,4.549,6.21-.45,7.88,4.729,3.139,1.329,11.949-5.93,11.949C-.677,19.83-2.187,10.36,2.953,7.08Z" transform="translate(0.047 0.29)" fill="#fff"/>
    <path id="Shape-2" data-name="Shape" d="M77.624,22.25l4.47-7.75a6.775,6.775,0,0,1-2.68.58h-.54c-2.66,3.36-7,2.75-7-.381-1.519,1.461-3.09,2.53-4.52,2.53-1.98,0-2.68-1.679-1.679-3.489l3.19-5.55c1.07-1.82-.61-2.43-4.39,2.31l-3.74,6.53h-2.48l.84-1.47a8.609,8.609,0,0,1-3.769,1.68h-.07q-.34.016-.68,0a2.671,2.671,0,0,1-2.68-2l1.53-.8a1.37,1.37,0,0,0,1.16.9c2.33,0,1.78-4.579,2.78-7.13-.869,1.15-2.1,2.88-3.49,4.48-2.039,2.36-4.41,4.53-6.4,4.53s-2.679-1.669-1.679-3.489l2.6-4.511a1.21,1.21,0,0,0-.14-1.39l-.33-.4c-1.959,2.659-2.88,3.89-4.06,5.26-2.029,2.36-4.79,4.53-7.58,4.53-2.17,0-3.46-1.35-3.33-3.119a7.2,7.2,0,0,1-3.26,1,4.158,4.158,0,0,1-.54,0,5.431,5.431,0,0,1-4.181,2.29,2.58,2.58,0,0,1-2.83-2.62c-1.51,1.45-3.08,2.52-4.51,2.52-1.99,0-2.68-1.669-1.68-3.49l2.6-4.51a1.209,1.209,0,0,0-.14-1.39l-.319-.4c-2,2.62-2.87,3.85-4.03,5.22-2.04,2.361-4.4,4.531-6.4,4.531a1.9,1.9,0,0,1-2.13-1.6,6,6,0,0,1-3.4,1.6c-1.991,0-2.68-1.67-1.68-3.49l3.44-5.95a5.452,5.452,0,0,1,4.2-2.831,2.55,2.55,0,0,1,2.57,2.52h1.43l-3.97,6.9c-.57.96-.26,1.34.28,1.34,1.09,0,2.81-1.63,4.58-3.68l.17-.19c1.6-1.89,3.06-3.97,4.15-5.5l-.21-.28c-.91-1.14-.79-2.53.6-3.78L18.965,3.7a1,1,0,0,0-.14,1.42L20.2,6.77a2.51,2.51,0,0,1,.35,3.33L18.1,14.4c-.57.96-.26,1.34.28,1.34,1.09,0,2.81-1.63,4.58-3.68l.13-.15L29.965,0h2.5l-3.12,5.41a2.866,2.866,0,0,1,1.6-.54,2.1,2.1,0,0,1,2.219,2.2,6,6,0,0,1-.92,2.81l-2.31,4a5.241,5.241,0,0,0,3.711-1.82l.149-.17,2.34-4.11a5.192,5.192,0,0,1,4.6-2.83c2,0,3.32,1.73,2,4l-.35.61c-1.84,3.181-4.82,3.49-6.4,2.831l-.24.419c-1.13,1.99-.23,2.93,1.28,2.93,1.76,0,3.991-1.63,5.76-3.68l.17-.19c1.6-1.89,3.06-3.97,4.15-5.5l-.21-.28c-.88-1.14-.8-2.53.64-3.78L48.8,3.7a1,1,0,0,0-.139,1.42L50,6.75a2.509,2.509,0,0,1,.35,3.33l-2.46,4.3c-.57.959-.26,1.34.28,1.34,1.09,0,2.81-1.63,4.58-3.68l.17-.19c2.22-2.6,4.45-5.81,5.45-7.2l1.85,1c-1.51,3.15-1.35,6.73-2.13,9.07a15.272,15.272,0,0,0,2.991-2.66l.139-.16L68.094.03H70.5l-3.92,6.82A5,5,0,0,1,70,4.98c1.319,0,2.38,1.34,1.319,3.21l-3.54,6.21c-.57.96-.26,1.34.28,1.34,1.09,0,2.81-1.63,4.58-3.68l.13-.15,1-1.72,1.2-2.1c1.42-2.45,2.88-3.21,4.77-3.21,2.32,0,3.69,2.43,2.2,5l-2.319,4a5.289,5.289,0,0,0,3.71-1.82l.17-.19,3.839-6.66H89.8l-.5.85c2.5-2.24,6.21-.94,3.92,2.95l-2.71,4.65c-.291.52-.6,1.2-1,1.84A11.54,11.54,0,0,0,94,12.06l.17-.19a1.538,1.538,0,0,1,.95.91c-2.011,2.33-4.351,4.46-7.91,4.53h-.14a2.67,2.67,0,0,1-2.69-2l1.391-.66a1,1,0,0,0,1.77,0l3.71-6.421c.64-1.11-1.08-2.479-3.82,1.25l-7.34,12.77Z" transform="translate(15.906 1.5)" fill="#fff"/>
  </g>
</svg>
